<svg xmlns="http://www.w3.org/2000/svg" viewBox="0 0 45.1 39.8"><path d="M15.4 24.9v-6.8c0-.6-.2-1.3-.4-1.9h5.3c.5.7 1.4 1.1 2.4 1.1s1.9-.4 2.4-1.1h5.3c-.2.6-.4 1.2-.4 1.9v6.8H15.4zm7.3 9.3c-.7-.7-1.3-.8-3.3-.8-2.4 0-4-1.4-4-3.6v-4.5h14.5v4.5c0 2.2-1.6 3.6-4 3.6-2 0-2.5.1-3.2.8" fill="#ffe500"/><g fill="#fff"><path d="M16.2 35.1v1.4L15 37c1 .5 2.2.9 3.7 1.2l.7-2.2c-1.4-.3-2.4-.6-3.2-.9M22.7 36.9c-1.4 0-2.6-.1-3-.3l-.7 2.3c1.1.3 2.4.5 3.7.5s2.6-.2 3.7-.5l-.7-2.2c-.5.1-1.6.2-3 .2M29.1 35.1c-.8.3-1.8.6-3.2.9l.7 2.2c1.5-.3 2.7-.8 3.7-1.2l-1.2-.5v-1.4zM13.8 13.1c1.8-1 6.4-3.2 3.3-5.6-.4-.3-.9-.6-1.3-1-.5.4.2 1.3.3 1.6 0 0-1 .1-1.3.1-1.6 0-3.2-.9-2.4-2.7-.6.1-.7.7-.9 1.2-.4-.3-1.1-.9-1.6-.8.4 1.4 2.3 2.7 3.7 2.9-1.4.8-4.1 1.4-5.5-.3-1 1.9.4 2.7 1.7 3.7-5.1 2.3-4.4 5-7.8 7.1.6.3 2.5-.1 2.7-.1-.7 1-1.1 1.4-1.3 1.8s-.3.9-.5 2c-.2.8-.4 1.7-1.5 2.2.4.7 1.3.2 1.6.1 0 .1-.2.9-.5 1.4 1.7-.1.9-3.8 2.7-2.9.5.2.7.8.4 1.2-1.1 2.3 1.4 4.4 1.3 6.5.6 0 1.3 0 1.7-.9.2.4.6 1 .7 1.6l.5-.9c.3 1.5 1.7 2.8 3.5 2.9-.9-1.4.2-3.3-2-5.3.3-.2.9-.6 1.1-.9-2.6.3-5.3-1.8-4.1-2.7.8-.6 1.2.7 2.4.5l-.5-.4.6-.6c-.5-.1-1.1-.4-1.1-.4l.3-.5c-3.1 0-3.1-2.3-1.9-2.4.6 0 1.3 1 3.2.8-.2-.3-.3-.7-.5-1.1.5 0 1 0 1.4-.2-.9-.1-1.2-.4-1.9-1l.9-.3c-1.3-.6-1.2-1.8-1.3-2.9.7.4 1.5 1 2.3.7.2-.1.3-.2.3-.4-.9-.5-1.6-2.4 1.3-4m-2.2.2c-1.6 1.7-.9 2.8-.6 3.1-.6-.1-1.5-.9-1.3-1.6-.2.2-.4.5-.6.7-.4.5-.8 1.1-1.1 1.6-.5 1.5.4 3 1.9 3.6-1.7-.3-2.5-1.8-2.5-2.7-.8 1.5-1.2 2.9-1.2 4.1 0 .4.1.8.1 1.2.4.7 1 1 2.1 1.1-1 .1-1.6 0-2-.4.7 3 3.9 5.6 5.2 7.8-1.3-1.7-4.1-4.3-5-6.1.1.6.3 2.3 1.1 3.4-1.2-1.2-1.3-3-1.2-4.1-.3-.8-.5-1.6-.5-2.6 0-.9 0-1.7.2-2.4-.8 1.1-1.9 1.5-2.4 3.2.1-2.2 1.7-2.2 2.9-4.8.5-1.1 1.1-2.1 1.9-3.3-1 .3-1.7.5-2.8 1.7.8-1.9 5.3-3.9 7.4-6-.6.1-3.2.2-4.2-.5 1.9.5 6.2-.1 7.8-1.2-1.1 1.6-3.5 1.7-6.5 4.9.3-.2.8-.5 1.3-.7M42.4 23c-.2-1.1-.3-1.5-.5-2s-.6-.9-1.3-1.8c.2 0 2.1.4 2.6.2-3.4-2.1-2.6-4.7-7.8-7.1 1.4-1 2.7-1.8 1.7-3.7-1.4 1.7-4.1 1.1-5.5.3 1.4-.3 3.3-1.5 3.7-2.9-.5-.1-1.2.5-1.6.8-.2-.5-.3-1.1-.9-1.3.8 1.8-.8 2.7-2.4 2.7-.2 0-1.3-.1-1.3-.1.2-.3.8-1.3.3-1.6-.4.4-.8.7-1.3 1-3.1 2.4 1.5 4.6 3.3 5.6 2.9 1.6 2.1 3.4.9 3.9 0 .2.1.3.3.4.8.3 1.6-.3 2.3-.7 0 1.2 0 2.3-1.3 2.9l.9.3c-.8.6-1 .9-1.9 1 .4.2 1 .2 1.4.2-.1.3-.2.8-.5 1.1 1.9.2 2.6-.9 3.2-.8 1.2.1 1.2 2.4-1.9 2.4l.3.5s-.6.3-1.1.4l.6.6-.5.4c1.2.2 1.6-1.1 2.4-.5 1.2 1-1.5 3.1-4.1 2.7.2.3.8.7 1.1.9-2.1 2-1.1 3.9-2 5.3 1.8-.1 3.2-1.5 3.5-2.9l.5.9c.2-.6.5-1.2.7-1.6.4.9 1.1.9 1.7.9-.1-2.1 2.4-4.1 1.3-6.5-.2-.5-.1-1 .4-1.3 1.7-.9.9 2.8 2.7 2.9-.3-.4-.5-1.3-.5-1.4.4.1 1.2.7 1.6-.1-.5-.3-.8-1.2-1-2m-3.2-3c.1.7.2 1.5.2 2.4 0 1-.2 1.8-.5 2.6.1 1.1 0 2.9-1.2 4.1.8-1.1 1-2.8.9-3.4-1 1.8-3.7 4.4-5 6.1 1.3-2.2 4.6-4.8 5.3-7.8-.4.5-1 .5-2 .4 1.1-.1 1.7-.4 2.1-1.2.1-.4.1-.8.1-1.2 0-1.2-.4-2.6-1.2-4.1 0 1-.8 2.5-2.5 2.7 1.5-.7 2.4-2.2 1.9-3.6-.3-.5-.7-1-1.1-1.6-.2-.3-.4-.5-.6-.7.2.7-.7 1.5-1.3 1.6.3-.3 1-1.4-.6-3.1.5.2 1 .5 1.3.8-2.9-3.2-5.4-3.3-6.5-4.9 1.6 1.1 5.9 1.7 7.8 1.2-1.1.7-3.6.6-4.2.5 2.1 2 6.6 4.1 7.4 6-1.1-1.2-1.8-1.4-2.8-1.7.8 1.1 1.4 2.1 1.9 3.3 1.2 2.6 2.8 2.7 2.9 4.8-.4-1.7-1.6-2.1-2.3-3.2"/><path d="M25 16.2c-.5.7-1.4 1.1-2.4 1.1-.2 0-.5 0-.7-.1.1.3.2.6.5.8-.1.8.2 1.5 1.1 1.7.1.4.3.7.8.9l-.6.8c-.2.3-.5.3-.8.3l-2.7-.3c.1-.3-.2-.6-1-.5l1-2.9-.5-1.4-1.2 1-.1 3.1-.5-.3c-.7-.3-.9.9-.2.9h.3c0 .1 0 .3.1.3-.1 0-.2.3 0 .4-.2.1-.2.3-.1.4-.1.2-.2.7.3.8.4.1.6-.3.7-.5l4.1 1.3c.6.2 1 .1 1.5-.4l1.1-.9c-.1.6.1 1.2.6 1.4 0 0-.1.6 0 .8H30v-6.8c0-.6.2-1.3.4-1.9H25zM18.8 27.7l.1.1c.1.1.2.1.3 0l.2-.1c.1-.1.9.2.9-.4.1.5-.5 1.5-.1 2l.5.8h-1.5c-.2 0-.3.1-.3.2l-.4.8c-.1.2-.1.4 0 .6l.3.3s.2-.2.3-.4l-.1-.1c-.1-.1-.1-.2 0-.3l.2-.5c.1-.2.2-.2.4-.2l1.2.3c.1 0 .2.1.3-.1.1-.3.4-.3.7-.2.7.1 2.2.3 2.8-.4.6.9 1.9.9 1.8 1.3l-.3 1.5h.4l.2-1.5c0-.2.1-.4-.1-.6-.1-.1-.1-.1-.3-.4-.2-.4-.2-1-.4-1.5.2-.2.4-.3.6-.3.4.1.6.9 1.2 1.5-.1-.3-.1-.6-.3-.9 0 0 .4.3.6.7.1.3.1.4.4.5.1.1.3 0 .5-.2 0 0-.4-.6-.7-1-.4-.5-1-1.1-1.7-1-.2 0-.5.1-.7.3-.9-.5-1.5 0-1.8 0l-1.6-.1c-.3 0-.6-.4-.6-.4 0-1.4-1.1-1.9-1.5-1.9 0 0 0-.2-.1-.3l-.3.4-.9-.3.7.6-.8.9c-.1.1-.1.3-.1.3"/><path d="M17.8 29.6c-.2.2-.2.4-.1.7l.1.3.4-.3-.1-.2c-.1-.1-.1-.2 0-.3l.5-.4c.1-.1.2-.1.3-.1l1.1.2s-.2-.2-.2-.5l-1-.1c-.1 0-.2 0-.4.1l-.6.6zM24.6 32.8h.4l.7-1.6c0-.1.1-.1.1-.1-.3-.1-.5-.2-.7-.3.2.2.3.3.2.5l-.7 1.5zM25 11.1l.8-4.3-2.8 1v4.5l2-1.2zm-1.6-2.9l1.9-.7-.8.6c-.4.3-1.1.6-1.1.6v-.5zm0 1l1.7-.6s-.2.2-.6.5-1.1.6-1.1.6v-.5zm0 1.1l1.5-.6s0 .2-.4.5-1.1.6-1.1.6v-.5z"/><path d="M19.9 14.9l.7.1v.1c0 .1 0 .2.1.3.1.3.3.6.6.8.3.3.8.5 1.5.5 1.4 0 2-.9 2.1-1.6V15h.6l.1-.1c.6-.9 1.2-1.8 2-2l-2.1-1.2-2.8 1.5-2.6-1.4L18 13c.7.1 1.3 1.1 1.9 1.9"/><path d="M22.4 12.2V7.7l-2.8-1 .7 4.3 2.1 1.2zm-.4-1.4s-.7-.3-1.1-.6-.4-.5-.4-.5l1.5.6v.5zm0-2.6v.4s-.7-.3-1.1-.6l-.8-.6 1.9.8zm0 1v.5s-.7-.3-1.1-.6-.6-.5-.6-.5l1.7.6zM22.7 4.9c-1.6 0-2.8.5-3.1 1.2l3.1 1.2 3.1-1.2c-.3-.7-1.5-1.2-3.1-1.2M22.7 3.1c1.2 0 2.4.4 3.2.8.1-.4.3-.7.5-1.1l-.7.1-.6-1.3-1.1.6L22.7 1l-1.2 1.2-1.1-.6-.7 1.3-.7-.1c.2.4.3.7.5 1.1.8-.4 2-.8 3.2-.8M43 12.9c.4-.1.7-.2 1.1-.5-.9-.2-2.6-.9-4.2-.6-.5.1-.8.3-.6.4.8.5 1.8 1.8 2.6 3.3.6-.8.4-1.9.2-2.2 1.3.8 1.6 1.2 2.2 1-.3-.5-.7-.9-1.3-1.4M3.4 15.5c.7-1.5 1.7-2.7 2.6-3.3.2-.1-.1-.3-.6-.4-1.5-.3-3.3.4-4.2.6.4.3.7.4 1.1.5-.6.5-1.1 1-1.4 1.4.6.1.9-.2 2.2-1-.1.3-.3 1.4.3 2.2"/></g><g fill="#1d1d1b"><path d="M12.3 29.1c.6-.5 1.1-.7 1.1-1.8-.9.5-3.4.4-4.5-1-.3-.4 0-.6.3-.3.7.8 2.1.4 2.5.2-.1-.3-.3-.6-.5-.8.2-.2.7-.4.8-.9-.3-.1-1.3-.3-1.3-.3.2-.2.4-.4.3-1-1.1.3-2.4-.1-2.8-.5-.3-.4 0-.8.3-.5.5.6 3.2 1.2 4.2.2-.4-.1-.8-.4-.9-.6.9-.1 1.7-.6 1.7-1.3-.5 0-1.5 0-1.8-.3.4-.2.7-.3.9-.8-1.7-.1-1.8-1.4-1.8-1.6 1.1.6 3 .4 2.5-1.2-.9 0-1.8-1.5.7-2.9 2.3-1.2 4.9-2.6 4.7-4.8-.1-1.4-2.5-2.4-2.8-3.1-1 .5-1.2 1-.7 1.9 0 0-2.2.2-2.3-1.1-.1-.6.3-1.2.8-1.6-.2 0-1.9-.4-2.4.9-.9-.6-1.7-.6-2.3.1 1 .6 1.6 2.6 3.2 3.2-1.2.6-3 .4-4.1-1.6-1 1.5-1.6 3.1.6 4.7-4 1.8-4 5.3-7.5 7 .4.9 1.1.9 2.1.8-1.5 2-.2 4-2.6 4.8.2.8.7 1.4 1.6 1.2-.3.4-.4.4-.8.8 1.3.8 2.9.2 3.2-2.4.1-.5.7-.2.5.3-1.5 3.1 2.3 5.4.9 7.6 1.2 0 2.1-.1 2.6-.5.2.5.4.9.3 1.4.6-.1.9-.5.9-1 .4 1.2 1.9 2.6 4.4 2.6-1.4-1.8-.2-3.7-2-5.8m-2.4 2.3l-.5.9c-.2-.6-.5-1.2-.7-1.6-.4.9-1.1.9-1.7.9.1-2.1-2.4-4.1-1.3-6.5.2-.5.1-1-.4-1.3-1.7-.9-.9 2.8-2.7 2.9.3-.4.5-1.3.5-1.4-.4.1-1.3.7-1.6-.1 1-.6 1.3-1.4 1.5-2.2.2-1.1.3-1.5.5-2 .1-.4.4-.8 1.2-1.8-.2 0-2.1.4-2.6.2 3.4-2.1 2.6-4.7 7.8-7.1-1.3-1-2.7-1.8-1.7-3.7 1.4 1.7 4.1 1.1 5.5.3-1.4-.3-3.3-1.5-3.7-2.9.5-.1 1.2.5 1.6.8.2-.5.3-1.1.9-1.2-.8 1.8.8 2.7 2.4 2.7.2 0 1.3-.1 1.3-.1-.2-.3-.8-1.3-.3-1.6.4.4.8.7 1.3 1 3.1 2.4-1.5 4.6-3.3 5.6-2.9 1.6-2.1 3.4-.9 3.9 0 .2-.1.3-.3.4-.8.3-1.6-.3-2.3-.7 0 1.2 0 2.3 1.3 2.9l-.9.3c.8.6 1 .9 1.9 1-.4.2-1 .2-1.4.2.1.3.2.8.5 1.1-1.9.2-2.6-.9-3.2-.8-1.2.1-1.2 2.4 1.9 2.4l-.3.5s.6.3 1.1.4l-.6.6.5.4c-1.3.2-1.6-1.1-2.4-.5-1.2 1 1.5 3.1 4.1 2.7-.2.3-.8.7-1.1.9 2.1 2 1.1 3.9 2 5.3-2.2 0-3.6-1.4-3.9-2.8"/><path d="M6.6 24c.4.5 1 .5 2 .4-1.1-.1-1.7-.4-2.1-1.2-.1-.4-.1-.8-.1-1.2 0-1.2.4-2.6 1.2-4.1 0 1 .8 2.5 2.5 2.7-1.5-.7-2.4-2.2-1.9-3.6.3-.5.7-1 1.1-1.6.2-.3.4-.5.6-.7-.2.7.7 1.5 1.3 1.6-.3-.3-1-1.4.6-3.1-.5.2-1 .5-1.3.8 2.9-3.2 5.4-3.3 6.5-4.9-1.6 1.1-5.9 1.7-7.8 1.2 1.1.7 3.6.6 4.2.5-2.1 2-6.6 4.1-7.4 6 1.1-1.2 1.8-1.4 2.8-1.7-.8 1.1-1.4 2.1-1.9 3.3C5.7 21 4.1 21.1 4 23.2c.5-1.7 1.7-2.1 2.4-3.2-.1.7-.2 1.5-.2 2.4 0 1 .2 1.8.5 2.6-.1 1.1 0 2.9 1.2 4.1-.8-1.1-1-2.8-.9-3.4 1 1.8 3.7 4.4 5 6.1-1.5-2.2-4.7-4.8-5.4-7.8M36.8 15.1c1 .3 1.7.5 2.8 1.7-.8-1.9-5.3-3.9-7.4-6 .6.1 3.2.2 4.2-.5-1.9.5-6.2-.1-7.8-1.2 1.1 1.6 3.5 1.7 6.5 4.9-.4-.3-.9-.6-1.3-.8 1.6 1.7.9 2.8.6 3.1.6-.1 1.5-.9 1.3-1.6.2.2.4.5.6.7.4.5.8 1.1 1.1 1.6.5 1.5-.4 3-1.9 3.6 1.7-.3 2.5-1.8 2.5-2.7.8 1.5 1.2 2.9 1.2 4.1 0 .4-.1.8-.1 1.2-.4.7-1 1-2.1 1.2 1 .1 1.6 0 2-.4-.7 3-3.9 5.6-5.3 7.8 1.3-1.7 4-4.3 5-6.1.1.7-.1 2.4-.9 3.4 1.2-1.2 1.3-3 1.2-4.1.3-.8.5-1.6.5-2.6 0-.9 0-1.7-.2-2.4.8 1.1 1.9 1.5 2.4 3.2-.1-2.2-1.7-2.2-2.9-4.8-.6-1.1-1.3-2.1-2-3.3"/><path d="M42 20c.9.1 1.7.1 2.1-.8-3.5-1.7-3.5-5.1-7.5-7 2.2-1.6 1.6-3.2.6-4.7-1.1 1.9-3 2.2-4.1 1.6 1.6-.6 2.2-2.6 3.2-3.2-.6-.7-1.4-.7-2.3-.1-.5-1.3-2.1-.9-2.4-.9.4.4.8 1 .8 1.6-.2 1.3-2.3 1.1-2.3 1.1.4-.9.2-1.4-.7-1.9-.3.7-2.6 1.7-2.8 3.1-.2 2.2 2.4 3.5 4.7 4.8 2.5 1.4 1.6 2.8.7 2.9-.5 1.6 1.4 1.8 2.5 1.2 0 .2-.1 1.5-1.8 1.6.1.5.4.7.9.8-.3.2-1.3.3-1.8.3.1.7.8 1.2 1.7 1.3-.1.2-.5.5-.9.6 1 1 3.7.3 4.2-.2.3-.3.6.1.3.5s-1.7.9-2.8.5c-.1.6.1.8.3 1 0 0-1.1.1-1.3.3.1.5.6.7.8.9-.2.2-.4.5-.5.8.5.2 1.8.6 2.5-.2.3-.3.6-.1.3.3-1.1 1.5-3.6 1.5-4.5 1 0 1.1.5 1.4 1.1 1.8-1.8 2.1-.6 4-1.9 5.8 2.4 0 3.9-1.3 4.4-2.6 0 .4.3.8.9 1 0-.5.1-.9.3-1.4.5.4 1.4.5 2.6.5-1.3-2.3 2.4-4.6.9-7.6-.2-.5.4-.8.5-.3.3 2.6 1.9 3.2 3.2 2.4-.4-.4-.6-.4-.8-.8.9.2 1.3-.4 1.6-1.2-2.4-.7-1.2-2.8-2.7-4.8m.2 5.3c0 .1.2.9.5 1.4-1.7-.1-.9-3.8-2.7-2.9-.5.2-.6.8-.4 1.3 1.1 2.3-1.5 4.4-1.3 6.5-.6 0-1.3 0-1.7-.9-.2.4-.6 1-.7 1.6l-.5-.9c-.3 1.5-1.7 2.8-3.5 2.9.9-1.4-.2-3.3 2-5.3-.3-.2-.9-.6-1.1-.9 2.6.3 5.4-1.8 4.1-2.7-.8-.6-1.2.7-2.4.5l.5-.4-.6-.6c.5-.1 1.1-.4 1.1-.4l-.3-.5c3.1 0 3.1-2.3 1.9-2.4-.6 0-1.3 1-3.2.8.2-.3.3-.7.5-1.1-.5 0-1 0-1.4-.2.9-.1 1.2-.4 1.9-1l-1-.5c1.3-.6 1.2-1.8 1.3-2.9-.7.4-1.5 1-2.3.7-.2-.1-.3-.2-.3-.4 1.2-.5 2-2.3-.9-3.9-1.8-1-6.4-3.2-3.3-5.6.4-.3.9-.6 1.3-1 .5.4-.2 1.3-.3 1.6 0 0 1 .1 1.3.1 1.6 0 3.2-.9 2.4-2.7.6.1.7.7.9 1.3.4-.3 1.1-.9 1.6-.8-.4 1.4-2.3 2.7-3.7 2.9 1.4.8 4.1 1.4 5.5-.3 1 1.9-.4 2.7-1.7 3.7 5.1 2.3 4.4 5 7.8 7.1-.4.2-2.4-.2-2.6-.2.7 1 1.1 1.4 1.3 1.8s.3.9.5 2c.2.8.5 1.7 1.5 2.2-.7.7-1.6.2-2 .1M17.7 31l.7-.6-.1-.2c-.1-.2 0-.2 0-.2l.4-.3c.1-.1.2-.1.3 0l1.2.3H19c-.3 0-.4.1-.5.3l-.1.2-.3.6c-.1.2-.2.5.1.9l.2.3-.5.9h.4l.3-.6s.5-.4.6-.9c-.1-.1-.2-.2-.2-.3l.1-.3c0-.1.1-.1.2-.1l1.2.3c.2 0 .4.1.5-.1.2-.3.2-.2.6-.2l.6.1c.9.1 1.7-.1 2-.4.1.3.3.5.5.7 0 .1 0 .2-.1.3l-.7 1.7H25l.6-1.5c.1-.1.1-.3.2-.3l-.1 1.5h1l.3-1.8c.1-.4 0-.5-.2-.7-.4-.4-.4-1.1-.6-1.6.1 0 .2-.1.3-.1.2 0 .4.6.7 1 .5.8 1.3 1.6 2.1.4-.1-.1-.2-.3-.3-.4l-.2-.3c-.1-.2-.8-.9-1.1-1.2-.6-.6-1.6-.5-1.9-.2-.9-.4-1.7 0-2 0l-1.5-.1c-.1 0-.2 0-.2-.1l.3-.1c-.3-1.1-.9-1.9-2-2.1 0 0-.1-.3-.2-.4l-.3.4c-.1 0-.2 0-.3.1l-1.4-.5 1.1 1.1s-.6.8-.7.9-.1.3 0 .4l.2.3c.1.1.2.1.4 0l.2-.1c.1-.1.4.1.6-.1-.1.3-.1.6-.2.8l-1-.1c-.2 0-.3 0-.4.1l-.8.6c-.3.2-.4.6-.2.9l.3.8zm8 .2l-.7 1.6h-.4l.7-1.6c.1-.2-.1-.3-.2-.5.2.1.4.2.7.3-.1.1-.1.2-.1.2m-6.3-3.5l-.2.1c-.1.1-.2.1-.3 0l-.1-.1s-.1-.2 0-.3l.8-.9-.7-.6.9.3.3-.4c.1.1.1.3.1.3.4 0 1.5.5 1.5 1.9 0 0 .3.4.6.4l1.6.1c.3 0 .9-.5 1.8 0 .2-.1.5-.2.7-.3.8-.1 1.3.5 1.7 1 .3.4.7 1 .7 1-.2.2-.4.3-.5.2-.2-.1-.3-.3-.4-.5-.1-.4-.6-.7-.6-.7l.3.9c-.6-.6-.8-1.4-1.2-1.5-.2 0-.4 0-.6.3.2.5.2 1.1.4 1.5.2.3.2.3.3.4.2.1.1.4.1.6l-.2 1.5H26l.3-1.5c.1-.5-1.2-.5-1.8-1.3-.6.6-2.1.5-2.8.4-.3 0-.5 0-.7.2-.1.1-.2.1-.3.1l-1.2-.3c-.2 0-.3 0-.4.2l-.2.5c-.1.1-.1.2 0 .3l.1.1c-.1.2-.3.4-.3.4l-.3-.3c-.1-.2-.1-.4 0-.6l.4-.8c0-.1.1-.2.3-.2h1.5l-.5-.8c-.3-.6.2-1.6.1-2 .1.6-.7.4-.8.4m-1.6 1.9l.7-.5c.1-.1.2-.2.4-.1l1 .1c.1.2.2.5.2.5l-1.1-.2c-.2 0-.2 0-.3.1l-.5.4c-.1.1-.1.2 0 .3l.1.2-.5.2-.1-.3c-.2-.2-.2-.5.1-.7M20.9 10.2c.4.3 1.1.6 1.1.6v-.5l-1.5-.6c-.1.1-.1.3.4.5M22 9.7v-.5l-1.8-.6s.2.2.6.5c.5.3 1.2.6 1.2.6M22 8.6v-.5l-1.9-.7.8.6c.4.4 1.1.6 1.1.6"/><path d="M27.3 14.9h1.9c-.1-.3-.4-.6-.9-.6-.6.1-.9.4-1 .6M25.2 7.5l-1.9.7v.4s.7-.3 1.1-.6c.5-.2.8-.5.8-.5M24.9 9.8l-1.5.6v.5s.7-.3 1.1-.6.4-.5.4-.5M25.1 8.6l-1.7.6v.5s.7-.3 1.1-.6.6-.5.6-.5M17 14.4c-.6 0-.9.3-.9.6H18c-.1-.3-.4-.6-1-.6"/><path d="M26.5 6.3c0-1.1-1.8-2.1-3.9-2.1-2 0-3.9 1-3.9 2.1v.3l.8 4.6-3.8 2.2c-.4.2-.9.9-1 1.6h.7c.1-.7.6-1.4 1.6-1.3.9 0 1.4.6 1.9 1.3l.1.2.2.3h-5.6c.4.8.8 1.7.8 2.7v11.7c0 3 2.3 4.4 4.8 4.4 1.9 0 2.2-.1 3.3 1 1.1-1.1 1.3-1 3.3-1 2.5 0 4.8-1.4 4.8-4.4V18.1c0-1 .4-1.8.8-2.7h-5.6l.2-.3.1-.2c.5-.8 1-1.3 1.9-1.3 1 0 1.5.7 1.6 1.3h.7c-.1-.7-.6-1.3-1-1.6l-3.6-2.2.8-4.6v-.2zm-6.9.5l2.8 1v4.5l-2.1-1.1-.7-4.4zm.7 9.4c.4.5 1 .9 1.7 1 .1.3.2.6.5.8-.1.8.2 1.5 1.1 1.7.1.4.3.7.8.9l-.7.8c-.2.3-.5.3-.8.3l-2.7-.3c.1-.3-.2-.6-1-.5l1-2.9-.5-1.4-1.2 1-.1 3.1-.5-.3c-.7-.3-.9.9-.2.9h.3c0 .1 0 .3.1.3-.1.1-.2.3 0 .4-.2.1-.2.3-.1.4-.1.2-.2.7.3.8.4.1.6-.3.7-.5l4.1 1.3c.6.2 1 .1 1.5-.4l1.1-.9c-.1.6.1 1.2.6 1.4 0 0-.1.6 0 .8H15.4v-6.8c0-.6-.2-1.3-.4-1.9h5.3zm4.4 2.6c-.2.4-.2.9.1 1.4l-.2.2c-.8-.1-1.1-1.3-1.1-1.3v.3c-.5-.2-.7-.6-.7-1.1.2.1.4.2.6.2l.1-.3c-.5-.1-.9-.4-1-.8h-.1.3c.3 0 .6 0 .9-.1.2.3.6.6 1 .6-.1.2 0 .5.1.9m1.2 3.1c-.1.1-.1.2-.2.4l-.4.3c.1-.6-.3-1.4-.7-1.7l.5-.5.1.1c-.3.5 0 1.3.7 1.4m-2.1-.2l.4-.3c.4.3.8 1 .7 1.7l-.4.4c-.1.1-.2.1-.2.2.1-.7-.2-1.6-.5-2m-.8.3c.1 0 .3 0 .4-.1.3.4.5 1.3.2 1.8-.2 0-.4 0-.5-.1H23c.2-.4.2-1.1 0-1.6m-.9-.1l.5.1c.1.4 0 1.1-.2 1.6l-.6-.2c.3-.4.4-1.1.3-1.5m-1-.1l.6.1c.1.3-.1 1-.3 1.4l-.6-.2c.2-.4.3-1 .3-1.3m-2.5-.2c-.3.1-.4-.1-.4-.3.6-.2.8-.1 1 0 .1.1.3.4.5.5 0 .2-.1.6-.2.8-.6-.1-.6-.6-.4-1-.1-.1-.3-.1-.5 0m-.4 1.1s.2.1.4.1c0 .1-.1.2-.3.2-.1 0-.1-.2-.1-.3m-.5-1.6c-.1-.1-.1-.3.1-.3s.4.2.6.3h-.7m.5 1.2c.1.1.5.1.5.1v.1c-.1.1-.6 0-.5-.2m.5-.3c-.3.1-.5 0-.5-.2.1.1.5.1.5.1v.1zm.4-3.1l-.5 1.8.2-3 .8-.7.4.9-1 2.9.3-1.9c-.1-.1-.2-.1-.2 0m.1 2.3h.7c.1 0 0 .2-.1.2-.2 0-.6-.2-.6-.2m.8.4l.6.1c0 .3 0 .9-.3 1.2l-.6-.2c.2-.3.3-.7.3-1.1m9.9 8.2c0 1.4-.7 2.5-1.7 3.1l.4-.8h-.4l-.5 1c-.5.2-1.1.3-1.8.3-2 0-2.5.1-3.3.8-.7-.7-1.3-.8-3.3-.8-.6 0-1.2-.1-1.8-.3l.5-1h-.4l-.4.9c-.1 0-.2-.1-.3-.2l.4-.7h-.4l-.1.5c-.9-.6-1.4-1.6-1.4-2.8v-4.5h14.5v4.5zm.4-13.6c-.2.6-.4 1.2-.4 1.9v6.8h-.8c-.4-.3-.7-1.5-.7-1.5-.2.4 0 1.3.2 1.5h-1c-.3-.3-.5-1.6-.5-1.6-.3.3-.1 1.3.1 1.6h-.7c0-.5.1-1 .1-1-.4-.1-.7-.3-.7-.6.2.2.3.2.5.2l.3-.2c-1 0-1-1-.2-1.5-.8 0-1.3-.4-1-1.2-.5-.3-.7-1.2-.3-1.6-.3-.3-.3-.9-.2-1.3-.4 0-.8-.2-1.1-.4h-.1c.5-.2.9-.5 1.2-.9h5.3zM27.4 13c-.8.1-1.5 1.1-2 2l-.1.1h-.6v.1c-.1.7-.7 1.6-2.1 1.6-.6 0-1.1-.2-1.5-.5-.3-.2-.5-.5-.6-.8 0-.1-.1-.2-.1-.3v-.1h-.6l-.1-.1c-.6-.9-1.2-1.8-2-2l2.1-1.2 2.6 1.4 2.6-1.4 2.4 1.2zM25 11.1l-2.1 1.1V7.7l2.9-1-.8 4.4zm-2.3-3.8l-3.1-1.2c.3-.6 1.5-1.2 3.1-1.2s2.8.5 3.1 1.2l-3.1 1.2z"/><path d="M29.6 20.6v-.3c-1 0-1.3-1.3-1.3-1.3-.3 1 .5 1.6 1.3 1.6M28.3 22.7l-.1-.3c-.9.2-1.4-1.2-1.4-1.2-.3 1.1.7 1.8 1.5 1.5M28.9 21.4c-1.1.2-1.5-1.1-1.5-1.1-.1.7.3 1.4 1 1.4-.2.9.7 1.3 1.4 1l-.1-.2c-.7.2-1.2-.4-.8-1.1M28.2 17.9v-.3c-1.4-.3-1.3-1.3-1.3-1.3-.2.9.6 1.6 1.3 1.6M19.2 33.1l.5-1h-.4l-.5 1zM19.9 33.1l.5-1h-.3l-.5 1zM23 33.1l.5-1h-.4l-.5 1zM23.8 33.1l.5-1h-.4l-.5 1zM22.2 33.1l.5-1h-.3l-.5 1zM27.7 32.1h-.4l-.5 1h.4zM20.7 33.1l.5-1h-.4l-.5 1zM21.5 33.1l.5-1h-.4l-.5 1zM19.9 26.6c-.1 0-.2 0-.2.1s.1.2.1.2c.1 0 .1-.1.1-.2.1-.1 0-.1 0-.1M22.7 3.5c1.6 0 2.8.5 3.5 1.1 0 0 .2-1.2.9-2.3l-1.3.1-.7-1.4-1.2.6L22.7.4l-1.3 1.2-1.3-.7-.7 1.4-1.3-.1c.7 1.1.9 2.3.9 2.3.8-.5 2.1-1 3.7-1m-3-.6l.6-1.3 1.1.6L22.7 1l1.2 1.2 1.1-.6.6 1.3.7-.1c-.2.4-.3.7-.5 1.1-.8-.5-2-.8-3.2-.8s-2.4.4-3.2.8c-.1-.4-.3-.7-.5-1.1l.8.1z"/><path d="M23.9 1c.2 0 .3-.1.4-.3 0-.2-.2-.7-.2-.7s-.4.4-.5.6c0 .2.2.4.3.4M26 1.7c.2.1.4 0 .4-.1.1-.2 0-.7 0-.7s-.5.2-.6.4c0 .1 0 .3.2.4M21.4 1c.2 0 .3-.2.3-.4s-.4-.6-.4-.6-.3.5-.2.7c-.1.2.1.3.3.3M19.3 1.7c.2-.1.2-.3.1-.5s-.6-.4-.6-.4-.1.6 0 .7c.1.3.3.3.5.2M44.1 13.1c.4-.2.8-.6.9-1-1.1-.2-4.1-1.4-6.5-.4.9-.9 1.7-1 1.8-2.2.4.3 1 .4 1.4-.2-.3-.7-.9-.1-1-.3-.1-.3.8.1 1-.9-.7-.2-.9.3-1.1.2-.1-.1.5-.4 0-1.2-.8.4-.4.9-.5 1-.2.1 0-.5-.9-.5-.1.9.8.9.6 1.1s-.4-.5-1-.2c0 .7.6 1.1 1.2.9-.1 1.4-1.4 1.1-2.3 2.7 2 1 2.9 2.8 4.1 4 .4-.3 1.1-1.6 1.1-1.6 1.3 1 2.2 0 2.2 0-.3-.4-.3-.8-1-1.4m-2 .2c.1.3.4 1.4-.2 2.2-.7-1.5-1.7-2.7-2.6-3.3-.2-.1.1-.3.6-.4 1.5-.3 3.3.4 4.2.6-.4.3-.7.4-1.1.5.6.5 1.1 1 1.4 1.4-.6.2-1-.2-2.3-1M22.3 37.3h-.9l-.1.3h.1s0-.1.1-.1h.7c-.2.4-.8.9-.8 1.1s.2.2.3.2c.2 0 .2-.1.3-.3.1-.4.3-.8.5-1.3l-.2.1zM22.9 37.9v-.3h.7v-.3c-.2 0-.5.1-.8.1l-.1.6c.3 0 .6.1.6.5 0 .1-.1.4-.2.4H23c-.1-.1 0-.1 0-.2s-.1-.2-.2-.1c-.1 0-.2.1-.2.2 0 .2.3.3.5.3.3 0 .7-.2.7-.5-.1-.6-.6-.7-.9-.7M24.5 37.3c-.3 0-.5.2-.5.5 0 .4.5.6.8.4 0 .3 0 .6-.2.6-.1 0-.1-.1-.1-.1 0-.1-.1-.2-.2-.1-.1 0-.1.1-.1.2 0 .2.3.2.4.2.4 0 .6-.4.6-.7 0-.6-.3-1-.7-1m.2.8c-.3 0-.3-.4-.3-.6 0-.1.1-.1.1-.1.2 0 .3.6.3.7h-.1M20.8 37.2s-.2.3-.6.6v.1s.1-.1.2-.1l-.2.8H20v.1l.8.1v-.1h-.1s-.1 0-.1-.1l.2-1.4z"/><path d="M29.4 36.1v-1.7c-1.3.6-2.9 1.1-5 1.3l-.1.6c.2 0 .4 0 .7.1-.8.1-1.8.2-2.3.2-.6 0-1.6-.1-2.3-.2.3 0 .5 0 .7-.1l-.1-.6c-2.1-.2-3.8-.7-5-1.3v1.7l-1.8.7c1.3.7 2.8 1.2 4.5 1.7l-.2.7c1 .3 2.6.6 4.2.6 1.7 0 3.2-.3 4.2-.6l-.2-.7c1.7-.4 3.2-1 4.5-1.7l-1.8-.7zm-14.3.8l1.2-.5V35c.8.3 1.8.6 3.2.9l-.7 2.2c-1.5-.3-2.7-.7-3.7-1.2m7.6 2.5c-1.3 0-2.6-.2-3.7-.5l.7-2.3c.5.1 1.6.3 3 .3s2.6-.1 3-.3l.7 2.3c-1.1.3-2.4.5-3.7.5m3.9-1.3l-.7-2.2c1.4-.3 2.4-.6 3.2-.9v1.4l1.2.5c-1 .5-2.3.9-3.7 1.2M2.3 14.5s.7 1.3 1.1 1.6c1.2-1.2 2.1-3 4.1-4-.9-1.5-2.2-1.3-2.3-2.7.6.2 1.2-.2 1.2-.9-.6-.3-.9.3-1 .2s.7-.2.6-1.1c-.8 0-.7.6-.9.5s.2-.6-.5-1c-.4.8.2 1 0 1.2-.1.1-.3-.5-1.1-.2.2 1 1.1.6 1 .9-.1.2-.7-.4-1 .3.4.7 1 .5 1.4.2.1 1.3.9 1.4 1.8 2.2-2.4-1-5.4.2-6.5.4.2.4.5.8 1 1-.7.6-.7 1-1.2 1.5.1-.1 1 .9 2.3-.1m-1.4-.2c.3-.5.8-.9 1.4-1.4-.4-.1-.7-.2-1.1-.5.9-.2 2.6-.9 4.2-.6.5.1.8.3.6.4-.8.5-1.8 1.8-2.6 3.3-.6-.8-.4-1.9-.2-2.2-1.3.8-1.7 1.2-2.3 1M21.6 13.6v.7c.3-.3.7-.2.7-.2v1.1s0 .5-.2.7h1.1c-.2-.2-.2-.7-.2-.7v-1.1s.5-.1.7.2v-.7h-2.1z"/></g></svg>